# xmcd
#
# Track frame offsets: 
#        150
#        13307
#        27167
#        38385
#        53967
#        66827
#        79262
#        94977
#        110170
#        124340
#        139487
#        149867
#        170192
#        187010
#        201862
#        216732
#        231122
#        250710
#        268232
#        285902
#        299060
#        317680
#        336695
#
# Disc length: 4714 seconds
#
# Revision: 7
# Processed by: cddbd v1.5.2PL0 Copyright (c) Steve Scherf et al.
# Submitted via: ExactAudioCopy v1.0b3
#
DISCID=89126817
DTITLE=Sammy Kershaw - The Definitive Collection
DYEAR=2004
DGENRE=Country
TTITLE0=Cadillac Style
TTITLE1=Don't Go Near The Water
TTITLE2=Anywhere But Here
TTITLE3=Yard Sale
TTITLE4=She Don't Know She's Beautiful
TTITLE5=Haunted Heart
TTITLE6=Queen Of My Double Wide Trailer
TTITLE7=I Can't Reach Her Anymore
TTITLE8=National Working Woman's Holiday
TTITLE9=Third Rate Romance
TTITLE10=If You're Gonna Walk, I'm Gonna Crawl
TTITLE11=Southbound
TTITLE12=Meant To Be
TTITLE13=Vidalia
TTITLE14=Politics, Religion And Her
TTITLE15=Fit To Be Tied Down
TTITLE16=Love Of My Life
TTITLE17=Matches
TTITLE18=Honky Tonk America
TTITLE19=One Day Left To Live
TTITLE20=Maybe Not Tonight (W Lorrie Morgan)
TTITLE21=When You Love Someone
TTITLE22=Me And Maxine
EXTD=YEAR: 2004
EXTT0=
EXTT1=
EXTT2=
EXTT3=
EXTT4=
EXTT5=
EXTT6=
EXTT7=
EXTT8=
EXTT9=
EXTT10=
EXTT11=
EXTT12=
EXTT13=
EXTT14=
EXTT15=
EXTT16=
EXTT17=
EXTT18=
EXTT19=
EXTT20=ft. Lorrie Morgan
EXTT21=
EXTT22=
PLAYORDER=
